<svg width="38" height="38" viewBox="0 0 38 38" fill="none" xmlns="http://www.w3.org/2000/svg">
<path d="M32.0625 2.375H5.9375C3.96999 2.375 2.375 3.96999 2.375 5.9375V32.0625C2.375 34.03 3.96999 35.625 5.9375 35.625H32.0625C34.03 35.625 35.625 34.03 35.625 32.0625V5.9375C35.625 3.96999 34.03 2.375 32.0625 2.375Z" fill="#FABE00"/>
<path d="M23.75 2.375H14.25C13.9351 2.375 13.633 2.50011 13.4103 2.72281C13.1876 2.94551 13.0625 3.24756 13.0625 3.5625V15.4375C13.0631 15.6399 13.1155 15.8388 13.2146 16.0153C13.3137 16.1918 13.4563 16.3401 13.6288 16.446C13.8013 16.5519 13.998 16.6119 14.2003 16.6204C14.4025 16.6288 14.6036 16.5855 14.7844 16.4944L19 14.3925L23.2156 16.4944C23.3811 16.5791 23.5641 16.6239 23.75 16.625C23.9723 16.6257 24.1904 16.564 24.3794 16.4469C24.5505 16.3399 24.6916 16.1911 24.7892 16.0145C24.8869 15.8379 24.9379 15.6393 24.9375 15.4375V3.5625C24.9375 3.24756 24.8124 2.94551 24.5897 2.72281C24.367 2.50011 24.0649 2.375 23.75 2.375Z" fill="#F08300"/>
<path d="M26.125 30.875H22.5625C22.2476 30.875 21.9455 30.7499 21.7228 30.5272C21.5001 30.3045 21.375 30.0024 21.375 29.6875C21.375 29.3726 21.5001 29.0705 21.7228 28.8478C21.9455 28.6251 22.2476 28.5 22.5625 28.5H26.125C26.4399 28.5 26.742 28.6251 26.9647 28.8478C27.1874 29.0705 27.3125 29.3726 27.3125 29.6875C27.3125 30.0024 27.1874 30.3045 26.9647 30.5272C26.742 30.7499 26.4399 30.875 26.125 30.875Z" fill="#232A33"/>
<path d="M29.6875 26.125H22.5625C22.2476 26.125 21.9455 25.9999 21.7228 25.7772C21.5001 25.5545 21.375 25.2524 21.375 24.9375C21.375 24.6226 21.5001 24.3205 21.7228 24.0978C21.9455 23.8751 22.2476 23.75 22.5625 23.75H29.6875C30.0024 23.75 30.3045 23.8751 30.5272 24.0978C30.7499 24.3205 30.875 24.6226 30.875 24.9375C30.875 25.2524 30.7499 25.5545 30.5272 25.7772C30.3045 25.9999 30.0024 26.125 29.6875 26.125Z" fill="#232A33"/>
</svg>
