<svg width="30" height="35" viewBox="0 0 30 35" fill="none" xmlns="http://www.w3.org/2000/svg">
<path d="M25 28.25C24.6685 28.25 24.3505 28.1183 24.1161 27.8839C23.8817 27.6495 23.75 27.3315 23.75 27V14.5C23.75 14.1685 23.8817 13.8505 24.1161 13.6161C24.3505 13.3817 24.6685 13.25 25 13.25C25.3315 13.25 25.6495 13.3817 25.8839 13.6161C26.1183 13.8505 26.25 14.1685 26.25 14.5V27C26.25 27.3315 26.1183 27.6495 25.8839 27.8839C25.6495 28.1183 25.3315 28.25 25 28.25Z" fill="#FF9800"/>
<path d="M15 28.25C14.6685 28.25 14.3505 28.1183 14.1161 27.8839C13.8817 27.6495 13.75 27.3315 13.75 27V14.5C13.75 14.1685 13.8817 13.8505 14.1161 13.6161C14.3505 13.3817 14.6685 13.25 15 13.25C15.3315 13.25 15.6495 13.3817 15.8839 13.6161C16.1183 13.8505 16.25 14.1685 16.25 14.5V27C16.25 27.3315 16.1183 27.6495 15.8839 27.8839C15.6495 28.1183 15.3315 28.25 15 28.25Z" fill="#FF9800"/>
<path d="M5 28.25C4.66848 28.25 4.35054 28.1183 4.11612 27.8839C3.8817 27.6495 3.75 27.3315 3.75 27V14.5C3.75 14.1685 3.8817 13.8505 4.11612 13.6161C4.35054 13.3817 4.66848 13.25 5 13.25C5.33152 13.25 5.64946 13.3817 5.88388 13.6161C6.1183 13.8505 6.25 14.1685 6.25 14.5V27C6.25 27.3315 6.1183 27.6495 5.88388 27.8839C5.64946 28.1183 5.33152 28.25 5 28.25Z" fill="#FF9800"/>
<path d="M28.3244 8.97502L17.2119 0.825021C16.5696 0.355715 15.7948 0.102783 14.9994 0.102783C14.2039 0.102783 13.4291 0.355715 12.7869 0.825021L1.67435 8.97502C1.03683 9.44211 0.563167 10.0987 0.321003 10.851C0.0788391 11.6033 0.0805509 12.4129 0.325894 13.1642C0.571237 13.9154 1.04767 14.57 1.68717 15.0344C2.32666 15.4988 3.09653 15.7492 3.88685 15.75H26.1119C26.9022 15.7492 27.672 15.4988 28.3115 15.0344C28.951 14.57 29.4275 13.9154 29.6728 13.1642C29.9182 12.4129 29.9199 11.6033 29.6777 10.851C29.4355 10.0987 28.9619 9.44211 28.3244 8.97502Z" fill="#FFC107"/>
<path d="M26.25 25.75H3.75C1.67893 25.75 0 27.4289 0 29.5V30.75C0 32.8211 1.67893 34.5 3.75 34.5H26.25C28.3211 34.5 30 32.8211 30 30.75V29.5C30 27.4289 28.3211 25.75 26.25 25.75Z" fill="#FFC107"/>
</svg>
