<svg width="40" height="40" viewBox="0 0 40 40" fill="none" xmlns="http://www.w3.org/2000/svg">
<path d="M30 31.25C29.6685 31.25 29.3505 31.1183 29.1161 30.8839C28.8817 30.6495 28.75 30.3315 28.75 30V17.5C28.75 17.1685 28.8817 16.8505 29.1161 16.6161C29.3505 16.3817 29.6685 16.25 30 16.25C30.3315 16.25 30.6495 16.3817 30.8839 16.6161C31.1183 16.8505 31.25 17.1685 31.25 17.5V30C31.25 30.3315 31.1183 30.6495 30.8839 30.8839C30.6495 31.1183 30.3315 31.25 30 31.25Z" fill="#C266FF"/>
<path d="M20 31.25C19.6685 31.25 19.3505 31.1183 19.1161 30.8839C18.8817 30.6495 18.75 30.3315 18.75 30V17.5C18.75 17.1685 18.8817 16.8505 19.1161 16.6161C19.3505 16.3817 19.6685 16.25 20 16.25C20.3315 16.25 20.6495 16.3817 20.8839 16.6161C21.1183 16.8505 21.25 17.1685 21.25 17.5V30C21.25 30.3315 21.1183 30.6495 20.8839 30.8839C20.6495 31.1183 20.3315 31.25 20 31.25Z" fill="#C266FF"/>
<path d="M10 31.25C9.66848 31.25 9.35054 31.1183 9.11612 30.8839C8.8817 30.6495 8.75 30.3315 8.75 30V17.5C8.75 17.1685 8.8817 16.8505 9.11612 16.6161C9.35054 16.3817 9.66848 16.25 10 16.25C10.3315 16.25 10.6495 16.3817 10.8839 16.6161C11.1183 16.8505 11.25 17.1685 11.25 17.5V30C11.25 30.3315 11.1183 30.6495 10.8839 30.8839C10.6495 31.1183 10.3315 31.25 10 31.25Z" fill="#C266FF"/>
<path d="M33.3244 11.975L22.2119 3.82502C21.5696 3.35572 20.7948 3.10278 19.9994 3.10278C19.2039 3.10278 18.4291 3.35572 17.7869 3.82502L6.67435 11.975C6.03683 12.4421 5.56317 13.0987 5.321 13.851C5.07884 14.6033 5.08055 15.4129 5.32589 16.1642C5.57124 16.9154 6.04767 17.57 6.68717 18.0344C7.32666 18.4988 8.09653 18.7492 8.88685 18.75H31.1119C31.9022 18.7492 32.672 18.4988 33.3115 18.0344C33.951 17.57 34.4275 16.9154 34.6728 16.1642C34.9182 15.4129 34.9199 14.6033 34.6777 13.851C34.4355 13.0987 33.9619 12.4421 33.3244 11.975Z" fill="#9C07FF"/>
<path d="M31.25 28.75H8.75C6.67893 28.75 5 30.4289 5 32.5V33.75C5 35.8211 6.67893 37.5 8.75 37.5H31.25C33.3211 37.5 35 35.8211 35 33.75V32.5C35 30.4289 33.3211 28.75 31.25 28.75Z" fill="#9C07FF"/>
</svg>
