<svg width="36" height="36" viewBox="0 0 36 36" fill="none" xmlns="http://www.w3.org/2000/svg">
<path d="M31.75 0.5H4.25C2.17893 0.5 0.5 2.17893 0.5 4.25V31.75C0.5 33.8211 2.17893 35.5 4.25 35.5H31.75C33.8211 35.5 35.5 33.8211 35.5 31.75V4.25C35.5 2.17893 33.8211 0.5 31.75 0.5Z" fill="#FABE00"/>
<path d="M23 0.5H13C12.6685 0.5 12.3505 0.631696 12.1161 0.866116C11.8817 1.10054 11.75 1.41848 11.75 1.75V14.25C11.7506 14.4631 11.8057 14.6725 11.9101 14.8582C12.0144 15.044 12.1645 15.2001 12.3461 15.3115C12.5277 15.423 12.7348 15.4862 12.9477 15.4951C13.1606 15.504 13.3722 15.4584 13.5625 15.3625L18 13.15L22.4375 15.3625C22.6117 15.4517 22.8043 15.4988 23 15.5C23.234 15.5008 23.4636 15.4358 23.6625 15.3125C23.8426 15.1999 23.9911 15.0433 24.0939 14.8574C24.1967 14.6715 24.2504 14.4624 24.25 14.25V1.75C24.25 1.41848 24.1183 1.10054 23.8839 0.866116C23.6495 0.631696 23.3315 0.5 23 0.5Z" fill="#F08300"/>
<path d="M25.5 30.5H21.75C21.4185 30.5 21.1005 30.3683 20.8661 30.1339C20.6317 29.8995 20.5 29.5815 20.5 29.25C20.5 28.9185 20.6317 28.6005 20.8661 28.3661C21.1005 28.1317 21.4185 28 21.75 28H25.5C25.8315 28 26.1495 28.1317 26.3839 28.3661C26.6183 28.6005 26.75 28.9185 26.75 29.25C26.75 29.5815 26.6183 29.8995 26.3839 30.1339C26.1495 30.3683 25.8315 30.5 25.5 30.5Z" fill="#232A33"/>
<path d="M29.25 25.5H21.75C21.4185 25.5 21.1005 25.3683 20.8661 25.1339C20.6317 24.8995 20.5 24.5815 20.5 24.25C20.5 23.9185 20.6317 23.6005 20.8661 23.3661C21.1005 23.1317 21.4185 23 21.75 23H29.25C29.5815 23 29.8995 23.1317 30.1339 23.3661C30.3683 23.6005 30.5 23.9185 30.5 24.25C30.5 24.5815 30.3683 24.8995 30.1339 25.1339C29.8995 25.3683 29.5815 25.5 29.25 25.5Z" fill="#232A33"/>
</svg>
