<svg width="35" height="34" viewBox="0 0 35 34" fill="none" xmlns="http://www.w3.org/2000/svg">
<path d="M33.9625 5.975C33.6119 5.51555 33.1598 5.14336 32.6416 4.88749C32.1233 4.63163 31.553 4.49901 30.975 4.5H8.6625L8.4375 3.5875C8.23412 2.77681 7.76573 2.0573 7.10671 1.54322C6.44769 1.02913 5.63582 0.749952 4.8 0.75H1.75C1.41848 0.75 1.10054 0.881696 0.866116 1.11612C0.631696 1.35054 0.5 1.66848 0.5 2C0.5 2.33152 0.631696 2.64946 0.866116 2.88388C1.10054 3.1183 1.41848 3.25 1.75 3.25H4.8C5.08386 3.24102 5.36233 3.32897 5.58953 3.49937C5.81674 3.66978 5.97914 3.91247 6.05 4.1875L10.1 20.4375C10.3065 21.2374 10.7713 21.9466 11.4223 22.4552C12.0733 22.9638 12.8739 23.2432 13.7 23.25H28.5875C29.4216 23.2507 30.2322 22.9734 30.891 22.4617C31.5498 21.9501 32.0192 21.2334 32.225 20.425L34.5875 9.2375C34.7409 8.68222 34.7643 8.09906 34.656 7.53327C34.5476 6.96748 34.3103 6.43426 33.9625 5.975Z" fill="#E72410"/>
<path d="M14.875 33.25C17.2912 33.25 19.25 31.2912 19.25 28.875C19.25 26.4588 17.2912 24.5 14.875 24.5C12.4588 24.5 10.5 26.4588 10.5 28.875C10.5 31.2912 12.4588 33.25 14.875 33.25Z" fill="#424242"/>
<path d="M28 33.25C30.4162 33.25 32.375 31.2912 32.375 28.875C32.375 26.4588 30.4162 24.5 28 24.5C25.5838 24.5 23.625 26.4588 23.625 28.875C23.625 31.2912 25.5838 33.25 28 33.25Z" fill="#424242"/>
</svg>
