<svg width="30" height="36" viewBox="0 0 30 36" fill="none" xmlns="http://www.w3.org/2000/svg">
<path d="M18.75 24.25H11.25C10.5596 24.25 10 24.8096 10 25.5V34.25C10 34.9404 10.5596 35.5 11.25 35.5H18.75C19.4404 35.5 20 34.9404 20 34.25V25.5C20 24.8096 19.4404 24.25 18.75 24.25Z" fill="#424242"/>
<path d="M22.4995 9.25H7.49954C7.29366 9.25107 7.09122 9.30297 6.91023 9.4011C6.72923 9.49923 6.57528 9.64055 6.46204 9.8125C6.35006 9.98247 6.28128 10.1772 6.26167 10.3798C6.24207 10.5824 6.27223 10.7867 6.34954 10.975L12.5995 25.975C12.6933 26.2033 12.8526 26.3987 13.0572 26.5366C13.2619 26.6745 13.5028 26.7488 13.7495 26.75H26.2495C27.2441 26.75 28.1979 26.3549 28.9012 25.6517C29.6045 24.9484 29.9995 23.9946 29.9995 23V16.75C29.9995 14.7609 29.2094 12.8532 27.8028 11.4467C26.3963 10.0402 24.4887 9.25 22.4995 9.25Z" fill="#E72410"/>
<path d="M23.75 0.5H20C19.337 0.5 18.7011 0.763392 18.2322 1.23223C17.7634 1.70107 17.5 2.33696 17.5 3V14.25C17.5 14.5815 17.6317 14.8995 17.8661 15.1339C18.1005 15.3683 18.4185 15.5 18.75 15.5C19.0815 15.5 19.3995 15.3683 19.6339 15.1339C19.8683 14.8995 20 14.5815 20 14.25V8H23.75C24.413 8 25.0489 7.73661 25.5178 7.26777C25.9866 6.79893 26.25 6.16304 26.25 5.5V3C26.25 2.33696 25.9866 1.70107 25.5178 1.23223C25.0489 0.763392 24.413 0.5 23.75 0.5Z" fill="#FFC107"/>
<path d="M7.5 9.25C5.51088 9.25 3.60322 10.0402 2.1967 11.4467C0.790177 12.8532 0 14.7609 0 16.75V23C0 23.9946 0.395088 24.9484 1.09835 25.6517C1.80161 26.3549 2.75544 26.75 3.75 26.75H13.75C14.0815 26.75 14.3995 26.6183 14.6339 26.3839C14.8683 26.1495 15 25.8315 15 25.5V16.75C15 14.7609 14.2098 12.8532 12.8033 11.4467C11.3968 10.0402 9.48912 9.25 7.5 9.25Z" fill="#FF8A80"/>
</svg>
