<svg width="40" height="40" viewBox="0 0 40 40" fill="none" xmlns="http://www.w3.org/2000/svg">
<path d="M27.5 2C22.2571 2 18 6.25835 18 11.5C18 16.7416 22.2584 21 27.5 21C32.7416 21 37 16.7416 37 11.5C37 6.25835 32.7429 2 27.5 2ZM32.0434 13.2269H30.6015L30.091 15.3257C30.0224 15.6107 29.771 15.8089 29.4782 15.8179C29.4782 15.8179 29.4692 15.8179 29.4614 15.8179C29.1764 15.8179 28.9264 15.6275 28.8396 15.3606L27.5 10.93L26.1617 15.3606C26.0749 15.6366 25.8417 15.8102 25.523 15.8179C25.229 15.8089 24.9789 15.6107 24.9103 15.3257L24.4011 13.2269H22.9657C22.612 13.2269 22.3179 12.9328 22.3179 12.5792C22.3179 12.2255 22.612 11.9314 22.9657 11.9314H24.0889L23.8726 11.0686H22.9657C22.612 11.0686 22.3179 10.7745 22.3179 10.4208C22.3179 10.0672 22.612 9.77308 22.9657 9.77308H23.5616L23.3375 8.84938C23.2507 8.4957 23.4671 8.1498 23.813 8.063C24.1589 7.9762 24.5125 8.19255 24.5993 8.53846L25.6098 12.71L26.8794 8.50348C26.9662 8.23531 27.2163 8.04616 27.5013 8.04616C27.7863 8.04616 28.0363 8.2366 28.1231 8.50348L29.3927 12.71L30.4032 8.53846C30.49 8.19255 30.8347 7.9775 31.1896 8.063C31.5355 8.1498 31.7506 8.49441 31.6651 8.84938L31.441 9.77308H32.0369C32.3906 9.77308 32.6846 10.0672 32.6846 10.4208C32.6846 10.7745 32.3906 11.0686 32.0369 11.0686H31.13L30.9137 11.9327H32.0447C32.3983 11.9327 32.6924 12.2268 32.6924 12.5805C32.6911 12.9341 32.397 13.2269 32.0434 13.2269Z" fill="#DA3B1C"/>
<path d="M35.95 26.575C35.4692 26.2266 34.9125 25.9972 34.3257 25.906C33.739 25.8147 33.1389 25.8641 32.575 26.05C29.9082 26.9463 27.1133 27.4022 24.3 27.4H23.325C23.6064 26.8151 23.7517 26.1741 23.75 25.525C23.75 24.3647 23.2891 23.2519 22.4686 22.4314C21.6481 21.611 20.5353 21.15 19.375 21.15H10C9.66848 21.15 9.35054 21.2817 9.11612 21.5161C8.8817 21.7506 8.75 22.0685 8.75 22.4V34.9C8.75 35.2315 8.8817 35.5495 9.11612 35.7839C9.35054 36.0183 9.66848 36.15 10 36.15H22.275C26.7259 36.1423 31.1148 35.1071 35.1 33.125L35.4375 32.95C36.0578 32.6374 36.5791 32.1587 36.9433 31.5672C37.3075 30.9757 37.5002 30.2947 37.5 29.6C37.5043 29.0083 37.3656 28.4242 37.0957 27.8976C36.8259 27.3709 36.4328 26.9172 35.95 26.575Z" fill="#FFCC80"/>
<path d="M7.5 18.65H6.25C4.17893 18.65 2.5 20.329 2.5 22.4V33.65C2.5 35.7211 4.17893 37.4 6.25 37.4H7.5C9.57107 37.4 11.25 35.7211 11.25 33.65V22.4C11.25 20.329 9.57107 18.65 7.5 18.65Z" fill="#0B78CB"/>
</svg>
