<svg width="36" height="36" viewBox="0 0 36 36" fill="none" xmlns="http://www.w3.org/2000/svg">
<path d="M25.5 0C20.2571 0 16 4.25835 16 9.5C16 14.7416 20.2584 19 25.5 19C30.7416 19 35 14.7416 35 9.5C35 4.25835 30.7429 0 25.5 0ZM30.0434 11.2269H28.6015L28.091 13.3257C28.0224 13.6107 27.771 13.8089 27.4782 13.8179C27.4782 13.8179 27.4692 13.8179 27.4614 13.8179C27.1764 13.8179 26.9264 13.6275 26.8396 13.3606L25.5 8.92997L24.1617 13.3606C24.0749 13.6366 23.8417 13.8102 23.523 13.8179C23.229 13.8089 22.9789 13.6107 22.9103 13.3257L22.4011 11.2269H20.9657C20.612 11.2269 20.3179 10.9328 20.3179 10.5792C20.3179 10.2255 20.612 9.93141 20.9657 9.93141H22.0889L21.8726 9.06859H20.9657C20.612 9.06859 20.3179 8.77451 20.3179 8.42084C20.3179 8.06716 20.612 7.77308 20.9657 7.77308H21.5616L21.3375 6.84938C21.2507 6.4957 21.4671 6.1498 21.813 6.063C22.1589 5.9762 22.5125 6.19255 22.5993 6.53846L23.6098 10.71L24.8794 6.50348C24.9662 6.23531 25.2163 6.04616 25.5013 6.04616C25.7863 6.04616 26.0363 6.2366 26.1231 6.50348L27.3927 10.71L28.4032 6.53846C28.49 6.19255 28.8347 5.9775 29.1896 6.063C29.5355 6.1498 29.7506 6.49441 29.6651 6.84938L29.441 7.77308H30.0369C30.3906 7.77308 30.6846 8.06716 30.6846 8.42084C30.6846 8.77451 30.3906 9.06859 30.0369 9.06859H29.13L28.9137 9.9327H30.0447C30.3983 9.9327 30.6924 10.2268 30.6924 10.5805C30.6911 10.9341 30.397 11.2269 30.0434 11.2269Z" fill="#E72410"/>
<path d="M33.95 24.5749C33.4692 24.2264 32.9125 23.9971 32.3257 23.9058C31.739 23.8146 31.1389 23.8639 30.575 24.0499C27.9082 24.9461 25.1133 25.4021 22.3 25.3999H21.325C21.6064 24.815 21.7517 24.174 21.75 23.5249C21.75 22.3646 21.2891 21.2518 20.4686 20.4313C19.6481 19.6108 18.5353 19.1499 17.375 19.1499H8C7.66848 19.1499 7.35054 19.2816 7.11612 19.516C6.8817 19.7504 6.75 20.0684 6.75 20.3999V32.8999C6.75 33.2314 6.8817 33.5494 7.11612 33.7838C7.35054 34.0182 7.66848 34.1499 8 34.1499H20.275C24.7259 34.1422 29.1148 33.1069 33.1 31.1249L33.4375 30.9499C34.0578 30.6373 34.5791 30.1586 34.9433 29.5671C35.3075 28.9756 35.5002 28.2945 35.5 27.5999C35.5043 27.0081 35.3656 26.4241 35.0957 25.8974C34.8259 25.3708 34.4328 24.9171 33.95 24.5749Z" fill="#FFCC80"/>
<path d="M5.5 16.6499H4.25C2.17893 16.6499 0.5 18.3288 0.5 20.3999V31.6499C0.5 33.721 2.17893 35.3999 4.25 35.3999H5.5C7.57107 35.3999 9.25 33.721 9.25 31.6499V20.3999C9.25 18.3288 7.57107 16.6499 5.5 16.6499Z" fill="#0B78CB"/>
</svg>
