<svg width="44" height="44" viewBox="0 0 44 44" fill="none" xmlns="http://www.w3.org/2000/svg">
<path d="M26.125 28.875H17.875C17.1156 28.875 16.5 29.4906 16.5 30.25V39.875C16.5 40.6344 17.1156 41.25 17.875 41.25H26.125C26.8844 41.25 27.5 40.6344 27.5 39.875V30.25C27.5 29.4906 26.8844 28.875 26.125 28.875Z" fill="#424242"/>
<path d="M30.2509 12.375H13.7509C13.5244 12.3762 13.3017 12.4333 13.1026 12.5412C12.9035 12.6492 12.7342 12.8046 12.6096 12.9937C12.4864 13.1807 12.4108 13.3949 12.3892 13.6178C12.3676 13.8406 12.4008 14.0654 12.4859 14.2725L19.3609 30.7725C19.464 31.0236 19.6392 31.2386 19.8643 31.3903C20.0894 31.542 20.3544 31.6236 20.6259 31.625H34.3759C35.4699 31.625 36.5191 31.1904 37.2927 30.4168C38.0663 29.6432 38.5009 28.594 38.5009 27.5V20.625C38.5009 18.437 37.6317 16.3385 36.0845 14.7914C34.5373 13.2442 32.4389 12.375 30.2509 12.375Z" fill="#E72410"/>
<path d="M31.625 2.75H27.5C26.7707 2.75 26.0712 3.03973 25.5555 3.55546C25.0397 4.07118 24.75 4.77065 24.75 5.5V17.875C24.75 18.2397 24.8949 18.5894 25.1527 18.8473C25.4106 19.1051 25.7603 19.25 26.125 19.25C26.4897 19.25 26.8394 19.1051 27.0973 18.8473C27.3551 18.5894 27.5 18.2397 27.5 17.875V11H31.625C32.3543 11 33.0538 10.7103 33.5695 10.1945C34.0853 9.67882 34.375 8.97935 34.375 8.25V5.5C34.375 4.77065 34.0853 4.07118 33.5695 3.55546C33.0538 3.03973 32.3543 2.75 31.625 2.75Z" fill="#FFC107"/>
<path d="M13.75 12.375C11.562 12.375 9.46354 13.2442 7.91637 14.7914C6.36919 16.3385 5.5 18.437 5.5 20.625V27.5C5.5 28.594 5.9346 29.6432 6.70818 30.4168C7.48177 31.1904 8.53098 31.625 9.625 31.625H20.625C20.9897 31.625 21.3394 31.4801 21.5973 31.2223C21.8551 30.9644 22 30.6147 22 30.25V20.625C22 18.437 21.1308 16.3385 19.5836 14.7914C18.0365 13.2442 15.938 12.375 13.75 12.375Z" fill="#FF8A80"/>
</svg>
