<svg width="36" height="36" viewBox="0 0 36 36" fill="none" xmlns="http://www.w3.org/2000/svg">
<path d="M23.625 0.5H12.375C10.3039 0.5 8.625 2.17893 8.625 4.25V15.5C8.625 17.5711 10.3039 19.25 12.375 19.25H23.625C25.6961 19.25 27.375 17.5711 27.375 15.5V4.25C27.375 2.17893 25.6961 0.5 23.625 0.5Z" fill="#FDD835"/>
<path d="M20.5 0.5H15.5C15.1685 0.5 14.8505 0.631696 14.6161 0.866116C14.3817 1.10054 14.25 1.41848 14.25 1.75V6.75C14.25 7.41304 14.5134 8.04893 14.9822 8.51777C15.4511 8.98661 16.087 9.25 16.75 9.25H19.25C19.913 9.25 20.5489 8.98661 21.0178 8.51777C21.4866 8.04893 21.75 7.41304 21.75 6.75V1.75C21.75 1.41848 21.6183 1.10054 21.3839 0.866116C21.1495 0.631696 20.8315 0.5 20.5 0.5Z" fill="#FFC107"/>
<path d="M31.75 16.75H20.5C18.4289 16.75 16.75 18.4289 16.75 20.5V31.75C16.75 33.8211 18.4289 35.5 20.5 35.5H31.75C33.8211 35.5 35.5 33.8211 35.5 31.75V20.5C35.5 18.4289 33.8211 16.75 31.75 16.75Z" fill="#FFC107"/>
<path d="M28.625 16.75H23.625C23.2935 16.75 22.9755 16.8817 22.7411 17.1161C22.5067 17.3505 22.375 17.6685 22.375 18V23C22.375 23.663 22.6384 24.2989 23.1072 24.7678C23.5761 25.2366 24.212 25.5 24.875 25.5H27.375C28.038 25.5 28.6739 25.2366 29.1428 24.7678C29.6116 24.2989 29.875 23.663 29.875 23V18C29.875 17.6685 29.7433 17.3505 29.5089 17.1161C29.2745 16.8817 28.9565 16.75 28.625 16.75Z" fill="#F08300"/>
<path d="M15.5 16.75H4.25C2.17893 16.75 0.5 18.4289 0.5 20.5V31.75C0.5 33.8211 2.17893 35.5 4.25 35.5H15.5C17.5711 35.5 19.25 33.8211 19.25 31.75V20.5C19.25 18.4289 17.5711 16.75 15.5 16.75Z" fill="#FFC107"/>
<path d="M12.375 16.75H7.375C7.04348 16.75 6.72554 16.8817 6.49112 17.1161C6.2567 17.3505 6.125 17.6685 6.125 18V23C6.125 23.663 6.38839 24.2989 6.85723 24.7678C7.32607 25.2366 7.96196 25.5 8.625 25.5H11.125C11.788 25.5 12.4239 25.2366 12.8928 24.7678C13.3616 24.2989 13.625 23.663 13.625 23V18C13.625 17.6685 13.4933 17.3505 13.2589 17.1161C13.0245 16.8817 12.7065 16.75 12.375 16.75Z" fill="#F08300"/>
</svg>
