<svg width="240" height="44" viewBox="0 0 240 44" fill="none" xmlns="http://www.w3.org/2000/svg">
<g clip-path="url(#clip0_296_4134)">
<path d="M1.0314 15.2886C0.917911 15.3454 0.908454 15.4591 1.02194 15.5254L10.8951 22.0615L13.7227 8.72412L1.0314 15.2886Z" fill="#E72410"/>
<path d="M59.5229 8.72432H57.0263C56.8939 8.72432 56.6953 8.77168 56.5818 8.83799L44.0607 15.2983C43.9472 15.3551 43.9378 15.4688 44.0512 15.5351L53.7636 21.9385C53.8771 22.0048 54.0662 22.0617 54.1986 22.0617H56.6953C56.8277 22.0617 56.8371 22.0048 56.7331 21.9385L46.8221 15.4025L59.5607 8.82851C59.6742 8.77168 59.6648 8.71484 59.5324 8.71484L59.5229 8.72432Z" fill="#F08300"/>
<path d="M54.17 8.72432H36.7691L33.9414 22.0617H51.3423C51.4747 22.0617 51.4842 22.0048 51.3801 21.9385L41.4786 15.4025L54.1983 8.82851C54.3118 8.77168 54.3023 8.71484 54.17 8.71484V8.72432Z" fill="#E72410"/>
<path d="M64.8571 8.72432H62.3605C62.2281 8.72432 62.0295 8.77168 61.916 8.83799L49.3949 15.2983C49.2814 15.3551 49.2814 15.4688 49.3855 15.5351L59.0978 21.9385C59.2018 22.0048 59.4004 22.0617 59.5328 22.0617H62.0295C62.1619 22.0617 62.1808 22.0048 62.0673 21.9385L52.1564 15.4025L64.8855 8.82851C64.999 8.77168 64.9895 8.71484 64.8571 8.71484V8.72432Z" fill="#FABE00"/>
<path d="M53.395 0H12.4272C10.1386 0 8.5404 1.43983 8.16212 3.22067C7.95406 4.20581 8.33234 5.06781 9.07945 5.66459L23.804 15.3929L53.4234 0.104198C53.5369 0.0473628 53.5274 0 53.395 0Z" fill="#E72410"/>
<path d="M46.8964 30.6721L23.8118 15.4023L4.94507 25.1401C3.94263 25.7369 3.20498 26.6084 2.99693 27.584C2.61865 29.3649 3.60218 30.8047 5.89077 30.8047H46.8585C46.9909 30.8047 47.0098 30.7479 46.8964 30.6721Z" fill="#E72410"/>
<path d="M46.8403 37.8807C46.6228 37.5681 46.3202 37.3218 45.9419 37.1513C45.5636 36.9808 45.1002 36.8955 44.5706 36.8955C43.502 36.8955 42.613 37.2176 41.8848 37.8522C41.1566 38.4869 40.6838 39.3489 40.4474 40.4193C40.2109 41.4992 40.315 42.3706 40.7594 43.0148C41.2039 43.6684 41.951 43.9904 43.0291 43.9904C43.5682 43.9904 44.0694 43.9052 44.5139 43.7252C44.9773 43.5452 45.3745 43.3084 45.7338 42.9864C46.0932 42.6643 46.3769 42.2854 46.6228 41.8497C46.8592 41.4234 47.0389 40.9403 47.1618 40.4193C47.2753 39.9078 47.2942 39.4247 47.2469 38.9984C47.1807 38.5627 47.0484 38.1932 46.8308 37.8807H46.8403ZM45.4217 41.3571C45.2893 41.6507 45.1191 41.916 44.9111 42.1528C44.703 42.3896 44.4666 42.579 44.1923 42.7117C43.9181 42.8537 43.606 42.9201 43.275 42.9201C42.944 42.9201 42.6603 42.8537 42.4428 42.7117C42.2347 42.579 42.074 42.3896 41.9699 42.1528C41.8659 41.916 41.8092 41.6507 41.8092 41.3571C41.7997 41.054 41.8281 40.7508 41.9037 40.4288C41.9699 40.1162 42.074 39.8131 42.2064 39.5194C42.3482 39.2352 42.5184 38.97 42.7265 38.7427C42.9346 38.4964 43.171 38.3164 43.4547 38.1838C43.7289 38.0417 44.0316 37.9754 44.3531 37.9754C44.6746 37.9754 44.9489 38.0417 45.1759 38.1838C45.3839 38.3164 45.5447 38.4964 45.6487 38.7332C45.7622 38.9605 45.8189 39.2258 45.8284 39.5194C45.8379 39.8131 45.8095 40.1256 45.7433 40.4382C45.6771 40.7603 45.5731 41.0729 45.4312 41.3665L45.4217 41.3571Z" fill="#E72410"/>
<path d="M12.9947 37.8807C12.7771 37.5681 12.484 37.3218 12.0962 37.1513C11.718 36.9808 11.264 36.8955 10.7344 36.8955C9.66579 36.8955 8.77683 37.2176 8.04864 37.8522C7.32045 38.4869 6.8476 39.3489 6.62063 40.4193C6.39366 41.4992 6.49769 42.3706 6.93271 43.0148C7.37719 43.6684 8.13375 43.9904 9.2024 43.9904C9.74145 43.9904 10.2332 43.9052 10.6871 43.7252C11.1411 43.5452 11.5477 43.299 11.8976 42.9864C12.2476 42.6643 12.5502 42.2854 12.7866 41.8497C13.023 41.4234 13.1933 40.9403 13.3162 40.4193C13.4297 39.9078 13.4486 39.4247 13.4013 38.9984C13.3351 38.5627 13.2027 38.1932 12.9852 37.8712L12.9947 37.8807ZM11.5761 41.3571C11.4437 41.6507 11.2735 41.916 11.0654 42.1528C10.8574 42.3896 10.6209 42.579 10.3467 42.7117C10.0724 42.8537 9.76982 42.9201 9.41991 42.9201C9.07 42.9201 8.8052 42.8537 8.58769 42.7117C8.37018 42.579 8.21887 42.3896 8.11484 42.1528C8.02027 41.916 7.96353 41.6507 7.95407 41.3571C7.95407 41.054 7.97299 40.7508 8.04864 40.4288C8.11484 40.1162 8.21887 39.8131 8.35127 39.5194C8.49312 39.2352 8.66335 38.97 8.8714 38.7427C9.07 38.4964 9.31588 38.3164 9.59013 38.1838C9.86439 38.0417 10.1576 37.9754 10.498 37.9754C10.8385 37.9754 11.0843 38.0417 11.3019 38.1838C11.5194 38.3164 11.6801 38.4964 11.7842 38.7332C11.8976 38.9605 11.9544 39.2258 11.9638 39.5194C11.9733 39.8131 11.9449 40.1256 11.8693 40.4382C11.8031 40.7603 11.7085 41.0729 11.5666 41.3665L11.5761 41.3571Z" fill="#231815"/>
<path d="M52.5433 37.1228C52.5433 37.1228 51.9191 36.9713 51.9097 36.9713C51.5598 36.8955 51.2761 36.8955 50.9829 36.8955C50.6614 36.8955 50.3493 36.9334 50.0372 37.0187C49.7346 37.0944 49.4414 37.2176 49.1766 37.3786C48.9023 37.5491 48.6659 37.7575 48.4862 38.0322C48.2876 38.3069 48.1552 38.6195 48.0701 38.9889C48.0039 39.3015 47.9945 39.5573 48.0607 39.7752C48.1174 39.993 48.2214 40.1825 48.3538 40.334C48.4957 40.4761 48.6565 40.5993 48.8267 40.694C48.9969 40.7887 49.2144 40.8929 49.4698 40.9971C49.8575 41.1582 50.1318 41.3097 50.302 41.4329C50.4628 41.5655 50.5195 41.7739 50.4628 42.0202C50.3966 42.3043 50.2263 42.5317 49.9332 42.6832C49.3563 42.9769 48.6943 42.9579 48.0985 42.7495C47.9188 42.6832 47.7486 42.6075 47.5878 42.5222C47.5595 42.5033 47.5311 42.5222 47.5122 42.5506C47.5122 42.5506 47.1623 43.6305 47.1528 43.6684C47.1433 43.7063 47.1623 43.7347 47.2001 43.7442C47.2474 43.7536 47.3892 43.7915 47.5595 43.8294C47.9945 43.9241 48.42 43.9904 48.8834 43.9904C49.2523 43.9904 49.5927 43.9526 49.9332 43.8768C50.2642 43.801 50.5668 43.6779 50.8505 43.5168C51.1247 43.3463 51.3612 43.1284 51.5598 42.8537C51.7584 42.5885 51.8908 42.2759 51.9853 41.916C52.0515 41.5939 52.061 41.3192 51.9853 41.0918C51.9286 40.8645 51.8246 40.6845 51.6733 40.5235C51.5314 40.3719 51.3612 40.2583 51.1909 40.1635C51.0207 40.0688 50.7937 39.9646 50.529 39.8604C50.1601 39.7089 49.8953 39.5762 49.7346 39.4436C49.5738 39.3205 49.5171 39.15 49.5738 38.9226C49.6116 38.7427 49.6778 38.5911 49.7724 38.468C49.867 38.3448 49.971 38.2406 50.0939 38.1743C50.2169 38.0985 50.3493 38.0512 50.4817 38.0133C50.8789 37.9091 51.3044 37.9564 51.6922 38.0796L52.1839 38.2406C52.1839 38.2406 52.2501 38.2406 52.2596 38.2027L52.6 37.1986C52.6 37.1986 52.5906 37.1323 52.5622 37.1228H52.5433Z" fill="#E72410"/>
<path d="M40.0221 38.0891C39.9275 37.8144 39.7667 37.606 39.5303 37.445C39.2939 37.284 39.0196 37.1798 38.6981 37.1135C38.3671 37.0472 38.0077 37.0093 37.62 37.0093H35.9461C35.9461 37.0093 35.8799 37.0282 35.8704 37.0661L34.4141 43.8106C34.4141 43.8106 34.4235 43.8769 34.4613 43.8769H35.7002C35.7002 43.8769 35.7664 43.8485 35.7759 43.8106L36.3149 41.3572C37.2606 41.3572 38.0172 41.1867 38.3955 41.0256C38.5751 40.9499 38.7454 40.8646 38.9061 40.7699C39.1804 40.5994 39.4168 40.372 39.6154 40.0973C39.8046 39.8132 39.9464 39.4721 40.0221 39.0838C40.1166 38.6954 40.1166 38.3733 40.0221 38.0986V38.0891ZM38.5751 39.1595C38.49 39.5384 38.3198 39.7942 38.0456 39.9458C37.9321 40.0026 37.4403 40.2205 36.5419 40.2205L37.0053 38.0891H37.497C37.8848 38.0891 38.178 38.1744 38.386 38.3354C38.5846 38.5154 38.6508 38.7806 38.5751 39.1501V39.1595Z" fill="#E72410"/>
<path d="M58.5861 38.0892C58.5861 38.0892 58.6523 38.0608 58.6618 38.0324L58.8698 37.0756C58.8698 37.0756 58.8604 37.0188 58.8225 37.0188H53.659C53.659 37.0188 53.5834 37.0377 53.5834 37.0756C53.5834 37.0756 53.3942 38.0039 53.3848 38.0324C53.3848 38.0608 53.3942 38.0892 53.432 38.0892H55.2667C55.2667 38.0892 55.3235 38.1176 55.3045 38.146L54.0846 43.8106C54.0846 43.8106 54.094 43.8769 54.1319 43.8769H55.3802C55.3802 43.8769 55.4464 43.8485 55.4558 43.8106L56.6758 38.146C56.6758 38.146 56.7136 38.0892 56.7515 38.0892H58.5956H58.5861Z" fill="#E72410"/>
<path d="M19.3104 37.8429C19.1875 37.5872 18.9983 37.4072 18.7241 37.2935C18.4593 37.1704 18.1567 37.0946 17.8162 37.0662C17.4757 37.0377 17.0407 37.0188 16.5111 37.0188H15.0926C15.0926 37.0188 15.0264 37.0377 15.0169 37.0756L13.5605 43.8201C13.5605 43.8201 13.5795 43.8864 13.6078 43.8864H14.8562C14.8562 43.8864 14.9224 43.858 14.9224 43.8201L15.5276 41.0257H15.9721C16.2463 41.0257 16.4449 41.0825 16.549 41.1772C16.653 41.2814 16.7286 41.4614 16.7854 41.7361L17.1353 43.8296C17.1353 43.8296 17.1731 43.8959 17.211 43.8959H18.6106C18.6106 43.8959 18.6673 43.8675 18.6673 43.8296L18.1567 41.2057C18.1188 41.0067 18.0432 40.8457 17.9581 40.7131C17.8729 40.5805 17.75 40.5047 17.5798 40.4858C18.0243 40.4289 18.412 40.2395 18.7335 39.9553C19.0551 39.6522 19.2537 39.3017 19.3482 38.8944C19.4428 38.4586 19.4239 38.1176 19.3104 37.8619V37.8429ZM17.8919 38.9891C17.854 39.188 17.7689 39.3585 17.6649 39.4911C17.5514 39.6143 17.419 39.709 17.2677 39.7753C17.1069 39.8416 16.9462 39.889 16.7759 39.9079C16.6152 39.9269 16.426 39.9363 16.2274 39.9363H15.764L16.1612 38.0892H16.6152C16.8327 38.0892 17.0124 38.0892 17.1637 38.1176C17.3244 38.1366 17.4663 38.1839 17.5892 38.2313C17.7122 38.2976 17.8162 38.3828 17.8729 38.506C17.9202 38.6197 17.9391 38.7902 17.8919 38.9796V38.9891Z" fill="#231815"/>
<path d="M25.3911 37.0756C25.3911 37.0756 25.3722 37.0188 25.3438 37.0188H21.3719C21.3719 37.0188 21.3057 37.0377 21.2962 37.0756L19.8398 43.8201C19.8398 43.8201 19.8588 43.8864 19.8871 43.8864H23.8874C23.8874 43.8864 23.9442 43.858 23.9631 43.8201L24.1712 42.8634C24.1712 42.8634 24.1617 42.7971 24.1239 42.7971H21.4948L21.9109 40.8647H24.2941C24.2941 40.8647 24.3603 40.8362 24.3603 40.8078L24.5683 39.8511C24.5683 39.8511 24.5589 39.7848 24.5211 39.7848H22.1379L22.5067 38.0892H25.1074C25.1074 38.0892 25.1736 38.0608 25.1831 38.0324L25.3911 37.0756Z" fill="#231815"/>
<path d="M7.16841 37.0188H5.36212C5.36212 37.0188 5.28647 37.0377 5.2581 37.0566L2.19403 39.9647L2.81819 37.0661C2.81819 37.0661 2.79927 37.0093 2.7709 37.0093H1.53204C1.53204 37.0093 1.46584 37.0282 1.45638 37.0661L0 43.8106C0 43.8106 0.018914 43.8769 0.0472851 43.8769H1.28615C1.28615 43.8769 1.35235 43.8485 1.36181 43.8106L2.04271 40.6941L3.81118 43.82C3.81118 43.82 3.86792 43.8769 3.89629 43.8769H5.56072C5.56072 43.8769 5.60801 43.8579 5.59855 43.82L3.62203 40.4194L7.18733 37.0566C7.18733 37.0566 7.20624 37.0188 7.16841 37.0188Z" fill="#231815"/>
<path d="M30.3102 37.0756C30.3102 37.0756 30.2724 37.0188 30.2346 37.0188H28.8917C28.8917 37.0188 28.816 37.0377 28.8065 37.0662L24.8535 43.8201C24.8535 43.8201 24.8535 43.8769 24.8913 43.8769H26.1113C26.1113 43.8769 26.187 43.858 26.2059 43.8201L27.2934 41.8687C27.2934 41.8687 27.3502 41.8119 27.388 41.8119H29.6293C29.6293 41.8119 29.686 41.8403 29.686 41.8687L29.9319 43.8011C29.9319 43.839 29.9603 43.8675 29.9981 43.8675H31.3127C31.3127 43.8675 31.3788 43.839 31.3694 43.8011L30.3197 37.0662L30.3102 37.0756ZM27.9838 40.751C27.9838 40.751 27.9365 40.7226 27.946 40.6941L29.2037 38.4397C29.2037 38.4397 29.251 38.4113 29.2605 38.4397L29.5347 40.6847C29.5347 40.6847 29.5253 40.7415 29.4875 40.7415H27.9838V40.751Z" fill="#231815"/>
<path d="M81.6888 6.40351V11.1114C81.6888 13.4606 82.313 15.4687 83.5707 17.1264C84.8191 18.7841 86.2565 19.7693 87.8737 20.0913L85.9539 21.8059C84.6488 21.7112 83.3627 21.1523 82.0954 20.1482C80.8282 19.1441 80.0149 18.0737 79.6839 16.9465C79.3907 18.0737 78.5964 19.1346 77.3197 20.1292C76.0335 21.1239 74.7474 21.6827 73.4423 21.8059L71.4941 20.0913C73.1302 19.7788 74.5677 18.7841 75.816 17.117C77.0549 15.4498 77.679 13.4511 77.679 11.1208V6.41298H81.6983L81.6888 6.40351ZM84.4692 11.2061H89.4057V5.87305H93.3966V30.407H89.4057V13.4606H84.4692V11.2061Z" fill="#231815"/>
<path d="M117.447 30.3502H103.252C102.42 30.3502 101.749 30.1039 101.238 29.6113C100.727 29.1187 100.472 28.4746 100.472 27.6884V24.5151H112.984V23.0942H100.207V20.8397H106.449V18.9452H96.9824V16.7192H119.878V18.9452H110.44V20.8397H116.975V26.6464H104.463V28.1241H117.447V30.3502ZM113.248 6.53616C114.572 7.56867 115.234 8.81905 115.234 10.2873C115.234 11.7555 114.572 12.987 113.248 14.01C111.924 15.0236 110.317 15.5351 108.425 15.5351C106.534 15.5351 104.926 15.0236 103.621 14.01C102.307 12.9964 101.654 11.7555 101.654 10.2873C101.654 8.81905 102.307 7.57815 103.621 6.53616C104.936 5.49418 106.534 4.98267 108.425 4.98267C110.317 4.98267 111.924 5.50366 113.248 6.53616ZM106.354 8.02336C105.777 8.66749 105.494 9.42529 105.494 10.2873C105.494 11.1493 105.777 11.8882 106.354 12.5418C106.931 13.1954 107.612 13.5174 108.425 13.5174C109.239 13.5174 109.92 13.1954 110.496 12.5418C111.064 11.8882 111.357 11.1398 111.357 10.2873C111.357 9.43476 111.073 8.66749 110.496 8.02336C109.92 7.37922 109.239 7.05715 108.425 7.05715C107.612 7.05715 106.931 7.37922 106.354 8.02336Z" fill="#231815"/>
<path d="M122.865 6.66874H136.181V8.92321H131.537V11.3198C131.537 13.65 132.161 15.6487 133.419 17.3064C134.677 18.9641 136.105 19.9493 137.722 20.2713L135.774 21.9859C134.488 21.8911 133.211 21.3322 131.925 20.3282C130.639 19.3241 129.844 18.2631 129.532 17.1549C129.239 18.2631 128.445 19.3146 127.149 20.3092C125.854 21.3038 124.567 21.8627 123.291 21.9859L121.305 20.2713C122.941 19.9587 124.378 18.9641 125.627 17.3064C126.875 15.6487 127.49 13.65 127.49 11.3198V8.92321H122.875V6.66874H122.865ZM142.952 30.407H138.961V5.87305H142.952V30.407Z" fill="#231815"/>
<path d="M151.084 6.61196V10.1926H155.576V6.61196H159.567V18.6137H149.864C149.013 18.6137 148.342 18.3674 147.841 17.8843C147.339 17.4012 147.084 16.7665 147.084 15.9708V6.61196H151.075H151.084ZM155.576 16.3592V12.447H151.084V16.3592H155.576ZM163.955 21.6449C165.232 22.7627 165.875 24.1078 165.875 25.6897C165.875 27.2716 165.232 28.6167 163.955 29.7155C162.669 30.8238 161.128 31.3732 159.312 31.3732C157.496 31.3732 155.917 30.8238 154.64 29.7155C153.354 28.6072 152.72 27.2621 152.72 25.6897C152.72 24.1172 153.363 22.7627 154.64 21.6449C155.917 20.5271 157.477 19.9683 159.312 19.9683C161.147 19.9683 162.669 20.5271 163.955 21.6449ZM157.439 23.3121C156.91 24.013 156.645 24.8087 156.645 25.6991C156.645 26.5896 156.91 27.3474 157.439 28.0389C157.969 28.7304 158.593 29.0714 159.302 29.0714C160.012 29.0714 160.608 28.7209 161.137 28.0389C161.667 27.3474 161.931 26.5706 161.931 25.6991C161.931 24.8277 161.667 24.013 161.137 23.3121C160.608 22.6111 159.993 22.2606 159.302 22.2606C158.612 22.2606 157.969 22.6111 157.439 23.3121ZM166.499 10.5241H170.49V12.807H166.499V19.7977H162.508V5.92993H166.499V10.5241Z" fill="#231815"/>
<path d="M193.026 19.6745V21.929H183.588V30.369H179.597V21.929H170.131V19.6745H193.026ZM186.964 7.42649C188.44 8.65792 189.187 10.1451 189.187 11.8881C189.187 13.631 188.449 15.1087 186.964 16.3307C185.489 17.5527 183.692 18.1684 181.583 18.1684C179.474 18.1684 177.706 17.5527 176.231 16.3307C174.755 15.1087 174.008 13.6215 174.008 11.8881C174.008 10.1546 174.746 8.6674 176.231 7.42649C177.706 6.19506 179.493 5.57935 181.583 5.57935C183.673 5.57935 185.489 6.19506 186.964 7.42649ZM179.02 9.02735C178.34 9.8041 177.999 10.7608 177.999 11.8881C177.999 13.0153 178.34 13.9436 179.02 14.7298C179.701 15.5161 180.552 15.9139 181.583 15.9139C182.614 15.9139 183.465 15.5161 184.156 14.7298C184.846 13.9436 185.186 12.9964 185.186 11.8881C185.186 10.7798 184.846 9.81358 184.156 9.02735C183.465 8.2506 182.605 7.85276 181.583 7.85276C180.562 7.85276 179.701 8.24113 179.02 9.02735Z" fill="#231815"/>
<path d="M194.927 6.46035H208.034V8.71481H203.476V9.21686C203.476 11.4903 204.1 13.3469 205.358 14.8057C206.606 16.255 208.044 17.1454 209.661 17.458L207.713 19.1157C206.474 19.0209 205.207 18.5094 203.911 17.5906C202.616 16.6718 201.802 15.6866 201.471 14.6446C201.159 15.6961 200.346 16.6718 199.05 17.5811C197.745 18.4905 196.478 19.002 195.239 19.1251L193.291 17.4675C194.927 17.1549 196.365 16.2644 197.613 14.7962C198.852 13.3374 199.476 11.4808 199.476 9.22633V8.72429H194.946V6.46982L194.927 6.46035ZM212.432 21.6448C213.709 22.7626 214.352 24.1077 214.352 25.6896C214.352 27.2715 213.709 28.6166 212.432 29.7155C211.146 30.8237 209.595 31.3732 207.76 31.3732C205.926 31.3732 204.394 30.8237 203.117 29.7155C201.831 28.6072 201.197 27.2621 201.197 25.6896C201.197 24.1172 201.84 22.7626 203.117 21.6448C204.394 20.5271 205.944 19.9682 207.76 19.9682C209.576 19.9682 211.155 20.5271 212.432 21.6448ZM205.926 23.312C205.396 24.013 205.131 24.8087 205.131 25.6991C205.131 26.5895 205.396 27.3473 205.926 28.0388C206.455 28.7303 207.07 29.0713 207.76 29.0713C208.451 29.0713 209.084 28.7208 209.604 28.0388C210.124 27.3473 210.389 26.5706 210.389 25.6991C210.389 24.8276 210.124 24.013 209.604 23.312C209.084 22.611 208.47 22.2606 207.76 22.2606C207.051 22.2606 206.455 22.611 205.926 23.312ZM215.156 5.92988V19.8829H211.165V13.2711H206.493V11.0166H211.165V5.92041H215.156V5.92988Z" fill="#231815"/>
<path d="M219.714 8.42111H224.329V5.48462H228.32V8.42111H232.963V10.6756H228.376C228.594 12.6553 229.294 14.2751 230.476 15.5539C231.658 16.8233 233.001 17.6 234.495 17.8842L232.547 19.5703C231.308 19.4756 230.041 18.9641 228.745 18.0452C227.45 17.1264 226.636 16.1412 226.305 15.0993C225.993 16.1507 225.18 17.1264 223.884 18.0357C222.579 18.9451 221.312 19.4566 220.073 19.5798L218.125 17.8937C219.619 17.619 220.972 16.8422 222.163 15.5634C223.355 14.2846 224.055 12.6648 224.253 10.685H219.723V8.43058L219.714 8.42111ZM237.266 21.7964C238.533 22.8952 239.176 24.2119 239.176 25.7559C239.176 27.2999 238.543 28.6355 237.266 29.7249C235.999 30.8142 234.448 31.3542 232.632 31.3542C230.816 31.3542 229.303 30.8142 228.036 29.7249C226.769 28.6355 226.126 27.3188 226.126 25.7559C226.126 24.1929 226.759 22.8952 228.036 21.7964C229.313 20.6975 230.845 20.1481 232.632 20.1481C234.419 20.1481 235.989 20.6975 237.266 21.7964ZM230.816 23.454C230.296 24.1361 230.031 24.9033 230.031 25.7464C230.031 26.5895 230.296 27.3567 230.816 28.0293C231.336 28.7018 231.942 29.0334 232.632 29.0334C233.322 29.0334 233.928 28.6924 234.448 28.0293C234.968 27.3567 235.233 26.5989 235.233 25.7464C235.233 24.8939 234.968 24.1361 234.448 23.454C233.928 22.772 233.322 22.431 232.632 22.431C231.942 22.431 231.336 22.772 230.816 23.454ZM239.999 5.90141V20.4228H236.008V14.7677H231.478V12.4848H236.008V5.91088H239.999V5.90141Z" fill="#231815"/>
</g>
<defs>
<clipPath id="clip0_296_4134">
<rect width="240" height="44" fill="white"/>
</clipPath>
</defs>
</svg>
