<svg width="431" height="514" viewBox="0 0 431 514" fill="none" xmlns="http://www.w3.org/2000/svg">
<path opacity="0.3" d="M149.579 281.075C115.018 246.514 115.018 190.479 149.579 155.917L242.917 62.5791C277.478 28.0177 333.514 28.0177 368.075 62.5791C402.636 97.1404 402.636 153.176 368.075 187.737L274.737 281.075C240.175 315.636 184.14 315.636 149.579 281.075Z" fill="#FFE2DF"/>
<path opacity="0.3" d="M62.5789 451.075C28.0176 416.514 28.0176 360.479 62.5789 325.917L155.917 232.579C190.478 198.018 246.514 198.018 281.075 232.579C315.636 267.14 315.636 323.176 281.075 357.737L187.737 451.075C153.175 485.636 97.1403 485.636 62.5789 451.075Z" fill="#FFEFC5"/>
</svg>
